# xmcd CD database file
#
# Track frame offsets:
#	150
#	20355
#	37242
#	59307
#	75820
#	95732
#	112047
#	135762
#	156480
#	178095
#	185082
#	197397
#
# Disc length: 2950 seconds
#
# Revision: 0
# Processed by: cddbd v1.5.2PL0 Copyright (c) Steve Scherf et al.
# Submitted via: CdAid (MTCDDB.DLL V2003.12.21)
#
DISCID=9b0b840c
DTITLE=Grace Potter and the Nocturnals - Nothing But The Water
DYEAR=2005
DGENRE=Blues
TTITLE0=Toothbrush and My Table
TTITLE1=Some Kind of Ride
TTITLE2=Ragged Company
TTITLE3=Left Behind
TTITLE4=Treat Me Right
TTITLE5=Sweet Hands
TTITLE6=Joey
TTITLE7=2:22
TTITLE8=All But One
TTITLE9=Below The Beams
TTITLE10=Nothing But The Water (I)
TTITLE11=Nothing But The Water (II)
EXTD=www.gracepotter.com\nRecorded at Goddard College\n ID3G:   0 YEAR: 2005
EXTT0=
EXTT1=
EXTT2=
EXTT3=
EXTT4=
EXTT5=
EXTT6=
EXTT7=
EXTT8=
EXTT9=
EXTT10=
EXTT11=
PLAYORDER=
